<svg width="683" height="463" viewBox="0 0 683 463" fill="none" xmlns="http://www.w3.org/2000/svg"><g filter="url(#filter0_d)"><rect x="48" y="112" width="560" height="311" rx="10" fill="#fff"/></g><g filter="url(#filter1_d)"><rect x="192" y="40" width="451" height="99" rx="10" fill="#fff"/></g><rect x="447" y="69" width="168" height="43" rx="4" fill="#CADDEE"/><rect x="458" y="79" width="25" height="23" rx="4" fill="#fff"/><path stroke="#fff" stroke-width="3" d="M492 83.5h56m-56 8h98m-98 7h98"/><path d="M425.707 90.707a1 1 0 000-1.414l-6.364-6.364a1 1 0 10-1.414 1.414L423.586 90l-5.657 5.657a1 1 0 101.414 1.414l6.364-6.364zM388 91h37v-2h-37v2z" fill="#CADDEE"/><path d="M88.864 377.234c12.735-1.553 22.428-10.088 26.014-14.242 7.477-8.662 15.421-17.299 22.264-22.248l2.002-1.452c9.516-6.881 22.847-4.546 29.448 5.151l9.935 14.609c7.754 11.414 24.329 12.235 33.186 1.654l7.071-8.434c7.362-8.788 20.476-9.962 29.296-2.626 10.897 9.065 27.496 4.835 32.692-8.321l15.243-38.599c5.652-14.318 24.443-17.728 34.796-6.301l11.518 12.69a20.92 20.92 0 008.338 5.593l26.888 9.723a20.82 20.82 0 0110.125 7.853l14.825 21.806c8.668 12.753 27.776 11.957 35.353-1.465l18.716-33.169a20.79 20.79 0 018.059-7.98l11.176-6.162c11.126-6.136 25.127-.972 29.575 10.909l22.656 45.304c5.601 11.187 20.528 14.798 29.753 15.72" fill="url(#paint0_linear)"/><path d="M87.94 246.715v130.923h481.94" stroke="#CADDEE" stroke-width="2" stroke-miterlimit="10"/><path stroke="#CADDEE" d="M151.5 335v-64m83 74v-64m164 67v-64m-203 84v-35m85 8v-35m78 11v-35m82 66v-35m72 18v-35m-199-6v-14m159 31v-14"/><circle cx="152" cy="262" r="4" fill="#CADDEE"/><circle cx="235" cy="272" r="4" fill="#CADDEE"/><circle cx="399" cy="275" r="4" fill="#CADDEE"/><circle cx="196" cy="327" r="4" fill="#CADDEE"/><circle cx="281" cy="300" r="4" fill="#CADDEE"/><circle cx="359" cy="276" r="4" fill="#CADDEE"/><circle cx="441" cy="307" r="4" fill="#CADDEE"/><circle cx="513" cy="290" r="4" fill="#CADDEE"/><circle cx="314" cy="270" r="4" fill="#CADDEE"/><circle cx="473" cy="287" r="4" fill="#CADDEE"/><path fill="#CADDEE" d="M60 251h20v3H60zm0 25h20v3H60zm68 111h48v3h-48zm107 0h48v3h-48zm107 0h48v3h-48zm107 0h48v3h-48zM60 301h20v3H60zm0 25h20v3H60zm0 25h20v3H60zm131-179h48v3h-48z"/><path fill="#F4C6B7" d="M299 174h28v6h-28zm118 0h28v6h-28zm-59 0h28v6h-28zm118 0h28v6h-28zm55 0h28v6h-28z"/><path fill="#ACB7CE" d="M328 206h28v6h-28zm118 0h28v6h-28zm-59 0h28v6h-28zm118 0h28v6h-28z"/><path fill="#CADDEE" d="M191 180h48v3h-48zm0 8h48v3h-48z"/><path d="M131.908 157.562c13.105 0 23.725 10.614 23.725 23.702 0 3.199-.63 6.243-1.777 9.028l16.883 11.933a43.894 43.894 0 005.289-20.952c0-24.349-19.748-44.085-44.111-44.085-.276 0-.552.008-.828.008v20.383c.259-.009.535-.017.819-.017z" fill="url(#paint1_linear)"/><path d="M129.674 137.239c-23.328 1.164-41.885 20.427-41.885 44.034a43.846 43.846 0 006.513 23.065l16.202-12.822a23.663 23.663 0 01-2.321-10.243c0-11.726 8.524-21.469 19.722-23.366a23.843 23.843 0 013.166-.319v-20.392c-.465.009-.931.018-1.397.043z" fill="#E0ECF7"/><path d="M131.908 225.359c16.772 0 31.36-9.355 38.823-23.134l-16.884-11.933c-3.554 8.614-12.035 14.684-21.939 14.684-9.429 0-17.573-5.501-21.395-13.468l-16.202 12.821c7.756 12.614 21.689 21.03 37.597 21.03z" fill="#ACB7CE"/><path d="M122.124 180.19c.859.14 1.517.462 1.974.966.457.495.686 1.111.686 1.848a2.96 2.96 0 01-.448 1.582c-.299.476-.756.859-1.372 1.148-.607.289-1.353.434-2.24.434a7.991 7.991 0 01-2.044-.266c-.663-.187-1.227-.448-1.694-.784l.882-1.736c.373.28.803.499 1.288.658.495.149.999.224 1.512.224.569 0 1.017-.107 1.344-.322.327-.224.49-.537.49-.938 0-.803-.611-1.204-1.834-1.204h-1.036v-1.498l2.016-2.282h-4.172v-1.82h6.86v1.47l-2.212 2.52zm7.907 5.978c-.812 0-1.535-.201-2.17-.602-.635-.401-1.134-.98-1.498-1.736-.355-.765-.532-1.675-.532-2.73s.177-1.96.532-2.716c.364-.765.863-1.349 1.498-1.75s1.358-.602 2.17-.602c.812 0 1.535.201 2.17.602.635.401 1.129.985 1.484 1.75.364.756.546 1.661.546 2.716 0 1.055-.182 1.965-.546 2.73-.355.756-.849 1.335-1.484 1.736s-1.358.602-2.17.602zm0-1.918c.597 0 1.064-.257 1.4-.77.345-.513.518-1.307.518-2.38s-.173-1.867-.518-2.38c-.336-.513-.803-.77-1.4-.77-.588 0-1.055.257-1.4.77-.336.513-.504 1.307-.504 2.38s.168 1.867.504 2.38c.345.513.812.77 1.4.77zm7.57-2.758c-.719 0-1.307-.243-1.764-.728-.448-.495-.672-1.153-.672-1.974s.224-1.475.672-1.96c.457-.495 1.045-.742 1.764-.742.719 0 1.302.247 1.75.742.448.485.672 1.139.672 1.96s-.224 1.479-.672 1.974c-.448.485-1.031.728-1.75.728zm5.838-5.292h1.666l-6.692 9.8h-1.666l6.692-9.8zm-5.838 4.144a.848.848 0 00.742-.392c.187-.261.28-.649.28-1.162 0-.513-.093-.901-.28-1.162a.848.848 0 00-.742-.392c-.308 0-.555.135-.742.406-.187.261-.28.644-.28 1.148 0 .504.093.891.28 1.162a.87.87 0 00.742.392zm6.65 5.768c-.467 0-.887-.107-1.26-.322a2.286 2.286 0 01-.854-.952c-.205-.411-.308-.887-.308-1.428 0-.541.103-1.017.308-1.428.205-.411.49-.723.854-.938a2.4 2.4 0 011.26-.336c.719 0 1.302.247 1.75.742.457.485.686 1.139.686 1.96s-.229 1.479-.686 1.974c-.448.485-1.031.728-1.75.728zm0-1.148a.848.848 0 00.742-.392c.187-.271.28-.658.28-1.162 0-.504-.093-.887-.28-1.148a.84.84 0 00-.742-.406.87.87 0 00-.742.392c-.187.261-.28.649-.28 1.162 0 .513.093.901.28 1.162a.87.87 0 00.742.392z" fill="#CADDEE"/><path stroke="#CADDEE" stroke-width="2" d="M293 194h277"/><circle cx="314" cy="194" r="4" fill="#F4C6B7" stroke="#fff" stroke-width="2"/><circle cx="343" cy="194" r="4" fill="#ACB7CE" stroke="#fff" stroke-width="2"/><circle cx="372" cy="194" r="4" fill="#F4C6B7" stroke="#fff" stroke-width="2"/><circle cx="401" cy="194" r="4" fill="#ACB7CE" stroke="#fff" stroke-width="2"/><circle cx="430" cy="194" r="4" fill="#F4C6B7" stroke="#fff" stroke-width="2"/><circle cx="459" cy="194" r="4" fill="#ACB7CE" stroke="#fff" stroke-width="2"/><circle cx="488" cy="194" r="4" fill="#F4C6B7" stroke="#fff" stroke-width="2"/><circle cx="517" cy="194" r="4" fill="#ACB7CE" stroke="#fff" stroke-width="2"/><circle cx="546" cy="194" r="4" fill="#F4C6B7" stroke="#fff" stroke-width="2"/><path d="M229.547 77a6.335 6.335 0 00-6.328 6.328 6.335 6.335 0 006.328 6.328 6.335 6.335 0 006.328-6.328A6.335 6.335 0 00229.547 77zm7.873 16.79c-1.732-1.759-4.029-2.728-6.467-2.728h-2.812c-2.438 0-4.735.97-6.468 2.728a9.222 9.222 0 00-2.673 6.507c0 .388.315.703.703.703h19.688a.703.703 0 00.703-.703c0-2.445-.95-4.756-2.674-6.507zM261.547 77a6.335 6.335 0 00-6.328 6.328 6.335 6.335 0 006.328 6.328 6.335 6.335 0 006.328-6.328A6.335 6.335 0 00261.547 77zm7.873 16.79c-1.732-1.759-4.029-2.728-6.467-2.728h-2.812c-2.438 0-4.735.97-6.468 2.728a9.222 9.222 0 00-2.673 6.507c0 .388.315.703.703.703h19.688a.703.703 0 00.703-.703c0-2.445-.95-4.756-2.674-6.507zM293.547 77a6.335 6.335 0 00-6.328 6.328 6.335 6.335 0 006.328 6.328 6.335 6.335 0 006.328-6.328A6.335 6.335 0 00293.547 77zm7.873 16.79c-1.732-1.759-4.029-2.728-6.467-2.728h-2.812c-2.438 0-4.735.97-6.468 2.728a9.222 9.222 0 00-2.673 6.507c0 .388.315.703.703.703h19.688a.703.703 0 00.703-.703c0-2.445-.95-4.756-2.674-6.507zM325.547 77a6.335 6.335 0 00-6.328 6.328 6.335 6.335 0 006.328 6.328 6.335 6.335 0 006.328-6.328A6.335 6.335 0 00325.547 77zm7.873 16.79c-1.732-1.759-4.029-2.728-6.467-2.728h-2.812c-2.438 0-4.735.97-6.468 2.728a9.222 9.222 0 00-2.673 6.507c0 .388.315.703.703.703h19.688a.703.703 0 00.703-.703c0-2.445-.95-4.756-2.674-6.507zM357.547 77a6.335 6.335 0 00-6.328 6.328 6.335 6.335 0 006.328 6.328 6.335 6.335 0 006.328-6.328A6.335 6.335 0 00357.547 77zm7.873 16.79c-1.732-1.759-4.029-2.728-6.467-2.728h-2.812c-2.438 0-4.735.97-6.468 2.728a9.222 9.222 0 00-2.673 6.507c0 .388.315.703.703.703h19.688a.703.703 0 00.703-.703c0-2.445-.95-4.756-2.674-6.507z" fill="#ACB7CE"/><defs><linearGradient id="paint0_linear" x1="315.063" y1="102.059" x2="326.864" y2="497.324" gradientUnits="userSpaceOnUse"><stop offset=".426" stop-color="#F4C6B7"/><stop offset=".73" stop-color="#F7E8E0"/></linearGradient><linearGradient id="paint1_linear" x1="184" y1="151" x2="125" y2="185" gradientUnits="userSpaceOnUse"><stop stop-color="#F4C6B7"/><stop offset="1" stop-color="#F7E8E0"/></linearGradient><filter id="filter0_d" x="8" y="72" width="640" height="391" filterUnits="userSpaceOnUse" color-interpolation-filters="sRGB"><feFlood flood-opacity="0" result="BackgroundImageFix"/><feColorMatrix in="SourceAlpha" values="0 0 0 0 0 0 0 0 0 0 0 0 0 0 0 0 0 0 127 0"/><feOffset/><feGaussianBlur stdDeviation="20"/><feColorMatrix values="0 0 0 0 0 0 0 0 0 0 0 0 0 0 0 0 0 0 0.15 0"/><feBlend in2="BackgroundImageFix" result="effect1_dropShadow"/><feBlend in="SourceGraphic" in2="effect1_dropShadow" result="shape"/></filter><filter id="filter1_d" x="152" y="0" width="531" height="179" filterUnits="userSpaceOnUse" color-interpolation-filters="sRGB"><feFlood flood-opacity="0" result="BackgroundImageFix"/><feColorMatrix in="SourceAlpha" values="0 0 0 0 0 0 0 0 0 0 0 0 0 0 0 0 0 0 127 0"/><feOffset/><feGaussianBlur stdDeviation="20"/><feColorMatrix values="0 0 0 0 0 0 0 0 0 0 0 0 0 0 0 0 0 0 0.15 0"/><feBlend in2="BackgroundImageFix" result="effect1_dropShadow"/><feBlend in="SourceGraphic" in2="effect1_dropShadow" result="shape"/></filter></defs></svg>